HIERARCHY
ROOT joint_0
{
	OFFSET 0.000000 0.000000 0.000000
	CHANNELS 6 Xposition Yposition Zposition Zrotation Yrotation Xrotation 
	JOINT joint_1
	{
		OFFSET 6.004005 -1.946999 100.587036
		CHANNELS 3 Zrotation Yrotation Xrotation
		JOINT joint_2
		{
			OFFSET -4.601006 -0.824997 91.925903
			CHANNELS 3 Zrotation Yrotation Xrotation
			JOINT joint_3
			{
				OFFSET -5.420998 -1.130005 91.774048
				CHANNELS 3 Zrotation Yrotation Xrotation
				JOINT joint_4
				{
					OFFSET 4.308998 -3.777992 123.473999
					CHANNELS 3 Zrotation Yrotation Xrotation
					JOINT joint_5
					{
						OFFSET 25.565002 -6.305008 79.437988
						CHANNELS 3 Zrotation Yrotation Xrotation
						End Site
						{
							OFFSET 0.000000 0.000000 0.000000
						}
					}
				}
				JOINT joint_6
				{
					OFFSET -1.750000 -28.655998 68.557983
					CHANNELS 3 Zrotation Yrotation Xrotation
					JOINT joint_7
					{
						OFFSET -17.692001 -116.544006 -17.244019
						CHANNELS 3 Zrotation Yrotation Xrotation
						JOINT joint_8
						{
							OFFSET 27.063004 -23.640991 -266.895020
							CHANNELS 3 Zrotation Yrotation Xrotation
							JOINT joint_9
							{
								OFFSET 40.722000 -15.761017 -232.488953
								CHANNELS 3 Zrotation Yrotation Xrotation
								End Site
								{
									OFFSET 0.000000 0.000000 0.000000
								}
							}
						}
					}
				}
				JOINT joint_10
				{
					OFFSET 6.593002 24.457001 69.892944
					CHANNELS 3 Zrotation Yrotation Xrotation
					JOINT joint_11
					{
						OFFSET 24.311996 114.920002 -19.872925
						CHANNELS 3 Zrotation Yrotation Xrotation
						JOINT joint_12
						{
							OFFSET 21.081001 15.319000 -268.037964
							CHANNELS 3 Zrotation Yrotation Xrotation
							JOINT joint_13
							{
								OFFSET 27.794006 -8.947001 -234.744080
								CHANNELS 3 Zrotation Yrotation Xrotation
								End Site
								{
									OFFSET 0.000000 0.000000 0.000000
								}
							}
						}
					}
				}
			}
		}
	}
	JOINT joint_14
	{
		OFFSET -6.627998 -80.520004 -98.790039
		CHANNELS 3 Zrotation Yrotation Xrotation
		JOINT joint_15
		{
			OFFSET -43.638000 -13.751999 -502.538971
			CHANNELS 3 Zrotation Yrotation Xrotation
			JOINT joint_16
			{
				OFFSET -39.532999 -9.912994 -398.071007
				CHANNELS 3 Zrotation Yrotation Xrotation
				JOINT joint_17
				{
					OFFSET 174.940004 -34.660995 -75.688002
					CHANNELS 3 Zrotation Yrotation Xrotation
					End Site
					{
						OFFSET 0.000000 0.000000 0.000000
					}
				}
			}
		}
	}
	JOINT joint_18
	{
		OFFSET 12.591003 79.842003 -98.765015
		CHANNELS 3 Zrotation Yrotation Xrotation
		JOINT joint_19
		{
			OFFSET -39.080002 -1.297001 -503.101013
			CHANNELS 3 Zrotation Yrotation Xrotation
			JOINT joint_20
			{
				OFFSET -51.570000 -0.514000 -396.815987
				CHANNELS 3 Zrotation Yrotation Xrotation
				JOINT joint_21
				{
					OFFSET 178.987999 -11.521999 -73.244003
					CHANNELS 3 Zrotation Yrotation Xrotation
					End Site
					{
						OFFSET 0.000000 0.000000 0.000000
					}
				}
			}
		}
	}
}
MOTION
Frames: 7
Frame Time: 0.016667
-2483.145752 915.624573 1097.918945 6.124750 0.666866 0.055441 0.082955 -1.857739 -1.755409 0.193220 0.269457 0.352914 0.145514 -0.390066 -0.290137 -0.135850 -2.193309 -0.160004 0.000000 0.000000 0.000000 3.262621 1.723001 1.475288 -0.051099 1.972311 3.114048 -0.853733 4.747906 -2.421470 0.000000 0.000000 0.000000 1.850163 0.653969 1.477788 -0.127716 1.098737 -2.228749 0.539774 1.660365 5.772040 0.000000 0.000000 0.000000 0.476416 -1.180463 -1.715558 0.255628 -2.205246 1.145994 0.218493 2.288431 0.547611 0.000000 0.000000 0.000000 -1.576163 -3.491507 4.434817 -1.093349 0.231916 -1.408229 -1.229242 1.657443 -0.393154 0.000000 0.000000 0.000000 
-2483.191650 915.605286 1097.907959 6.135507 0.648605 0.052812 0.079695 -1.885415 -1.763702 0.190717 0.272572 0.353629 0.142841 -0.394273 -0.290571 -0.136143 -2.177825 -0.154914 0.000000 0.000000 0.000000 3.261239 1.733881 1.493918 -0.052164 1.984989 3.121218 -0.855549 4.750825 -2.429755 0.000000 0.000000 0.000000 1.854957 0.688914 1.481298 -0.131096 1.141865 -2.270602 0.542069 1.684501 5.809952 0.000000 0.000000 0.000000 0.472506 -1.161733 -1.713170 0.252241 -2.208318 1.149471 0.215009 2.301088 0.548616 0.000000 0.000000 0.000000 -1.579812 -3.482926 4.438743 -1.096513 0.244797 -1.409627 -1.232493 1.664982 -0.393991 0.000000 0.000000 0.000000 
-2483.229248 915.587769 1097.896973 6.147130 0.629587 0.050101 0.075396 -1.912517 -1.773617 0.187353 0.275173 0.356084 0.139063 -0.399463 -0.293275 -0.136535 -2.160971 -0.149138 0.000000 0.000000 0.000000 3.260270 1.744577 1.511438 -0.053171 1.997090 3.130128 -0.857918 4.756396 -2.439719 0.000000 0.000000 0.000000 1.858932 0.724543 1.487982 -0.134808 1.187583 -2.317908 0.544424 1.709033 5.848566 0.000000 0.000000 0.000000 0.468141 -1.142071 -1.710094 0.248550 -2.210170 1.151857 0.211210 2.312074 0.549154 0.000000 0.000000 0.000000 -1.583533 -3.472805 4.441691 -1.099965 0.256878 -1.409352 -1.235818 1.672867 -0.394836 0.000000 0.000000 0.000000 
-2483.265869 915.574158 1097.886963 6.160120 0.612234 0.047052 0.071126 -1.940483 -1.783162 0.184014 0.279076 0.358414 0.135332 -0.403552 -0.295644 -0.137249 -2.147507 -0.143296 0.000000 0.000000 0.000000 3.257448 1.754360 1.528922 -0.054304 2.008484 3.135922 -0.859875 4.760029 -2.448526 0.000000 0.000000 0.000000 1.860832 0.759266 1.494608 -0.137825 1.233290 -2.367240 0.546920 1.724212 5.884646 0.000000 0.000000 0.000000 0.463577 -1.124510 -1.707369 0.244443 -2.210712 1.155373 0.207202 2.321782 0.549349 0.000000 0.000000 0.000000 -1.587764 -3.465033 4.444844 -1.103925 0.269582 -1.408884 -1.239615 1.682224 -0.395778 0.000000 0.000000 0.000000 
-2483.307129 915.568787 1097.874023 6.175231 0.596837 0.043490 0.065291 -1.964019 -1.790191 0.178807 0.280674 0.358551 0.130032 -0.407150 -0.295854 -0.138263 -2.140658 -0.138299 0.000000 0.000000 0.000000 3.255991 1.763548 1.544019 -0.055367 2.019693 3.137818 -0.860590 4.759161 -2.453216 0.000000 0.000000 0.000000 1.868610 0.794193 1.501621 -0.139567 1.279644 -2.422031 0.549850 1.720989 5.917812 0.000000 0.000000 0.000000 0.458369 -1.109519 -1.706101 0.239142 -2.209931 1.162578 0.202558 2.328837 0.548742 0.000000 0.000000 0.000000 -1.592571 -3.461410 4.448650 -1.108303 0.285377 -1.409512 -1.243940 1.691265 -0.396956 0.000000 0.000000 0.000000 
-2483.350098 915.571472 1097.862061 6.192099 0.583931 0.039731 0.058306 -1.987873 -1.795492 0.172299 0.284367 0.357184 0.123509 -0.411781 -0.295521 -0.139789 -2.137129 -0.132590 0.000000 0.000000 0.000000 3.255995 1.771985 1.559577 -0.056692 2.031235 3.134693 -0.860488 4.754630 -2.455532 0.000000 0.000000 0.000000 1.878909 0.829990 1.508723 -0.140180 1.327519 -2.480982 0.553128 1.702528 5.948293 0.000000 0.000000 0.000000 0.452532 -1.097851 -1.706200 0.232726 -2.207420 1.172468 0.197214 2.334224 0.547502 0.000000 0.000000 0.000000 -1.597942 -3.462150 4.452401 -1.113227 0.303755 -1.410295 -1.248806 1.700782 -0.398322 0.000000 0.000000 0.000000 
-2483.394043 915.569153 1097.848022 6.208571 0.570965 0.034986 0.052182 -2.008154 -1.800796 0.166669 0.285733 0.357151 0.117815 -0.414385 -0.295672 -0.141132 -2.136754 -0.128349 0.000000 0.000000 0.000000 3.255996 1.780179 1.573453 -0.057796 2.041975 3.133335 -0.860363 4.750367 -2.457364 0.000000 0.000000 0.000000 1.889578 0.860919 1.515579 -0.140523 1.368974 -2.532911 0.555881 1.683251 5.972650 0.000000 0.000000 0.000000 0.446844 -1.086712 -1.705134 0.226481 -2.203896 1.182690 0.192098 2.339298 0.546299 0.000000 0.000000 0.000000 -1.603297 -3.461598 4.458050 -1.117873 0.319139 -1.412173 -1.253565 1.712894 -0.399478 0.000000 0.000000 0.000000 
